<svg xmlns="http://www.w3.org/2000/svg" xmlns:xlink="http://www.w3.org/1999/xlink" width="500" zoomAndPan="magnify" viewBox="0 0 375 112.499997" height="150" preserveAspectRatio="xMidYMid meet" version="1.0"><defs><g/><clipPath id="a639898f92"><path d="M 9.839844 10.441406 L 97.292969 10.441406 L 97.292969 98.519531 L 9.839844 98.519531 Z M 9.839844 10.441406 " clip-rule="nonzero"/></clipPath><clipPath id="5befce1e21"><path d="M 19.320312 10.441406 L 87.808594 10.441406 C 90.324219 10.441406 92.738281 11.4375 94.515625 13.214844 C 96.292969 14.996094 97.292969 17.40625 97.292969 19.921875 L 97.292969 89.042969 C 97.292969 91.558594 96.292969 93.96875 94.515625 95.746094 C 92.738281 97.523438 90.324219 98.523438 87.808594 98.523438 L 19.320312 98.523438 C 16.804688 98.523438 14.394531 97.523438 12.617188 95.746094 C 10.839844 93.96875 9.839844 91.558594 9.839844 89.042969 L 9.839844 19.921875 C 9.839844 17.40625 10.839844 14.996094 12.617188 13.214844 C 14.394531 11.4375 16.804688 10.441406 19.320312 10.441406 Z M 19.320312 10.441406 " clip-rule="nonzero"/></clipPath><radialGradient gradientTransform="matrix(1, 0, 0, 1, 9.839931, 10.439587)" gradientUnits="userSpaceOnUse" r="124.121283" cx="0" id="b782ec003d" cy="0" fx="0" fy="0"><stop stop-opacity="1" stop-color="rgb(0.131226%, 29.011536%, 67.816162%)" offset="0"/><stop stop-opacity="1" stop-color="rgb(0.396729%, 29.037476%, 67.852783%)" offset="0.00390625"/><stop stop-opacity="1" stop-color="rgb(0.660706%, 29.063416%, 67.887878%)" offset="0.0078125"/><stop stop-opacity="1" stop-color="rgb(0.926208%, 29.090881%, 67.922974%)" offset="0.0117188"/><stop stop-opacity="1" stop-color="rgb(1.190186%, 29.116821%, 67.958069%)" offset="0.015625"/><stop stop-opacity="1" stop-color="rgb(1.455688%, 29.142761%, 67.99469%)" offset="0.0195312"/><stop stop-opacity="1" stop-color="rgb(1.719666%, 29.168701%, 68.029785%)" offset="0.0234375"/><stop stop-opacity="1" stop-color="rgb(1.985168%, 29.194641%, 68.06488%)" offset="0.0273438"/><stop stop-opacity="1" stop-color="rgb(2.250671%, 29.220581%, 68.101501%)" offset="0.03125"/><stop stop-opacity="1" stop-color="rgb(2.514648%, 29.246521%, 68.136597%)" offset="0.0351562"/><stop stop-opacity="1" stop-color="rgb(2.780151%, 29.273987%, 68.171692%)" offset="0.0390625"/><stop stop-opacity="1" stop-color="rgb(3.044128%, 29.299927%, 68.206787%)" offset="0.0429688"/><stop stop-opacity="1" stop-color="rgb(3.309631%, 29.325867%, 68.243408%)" offset="0.046875"/><stop stop-opacity="1" stop-color="rgb(3.573608%, 29.351807%, 68.278503%)" offset="0.0507812"/><stop stop-opacity="1" stop-color="rgb(3.839111%, 29.377747%, 68.313599%)" offset="0.0546875"/><stop stop-opacity="1" stop-color="rgb(4.104614%, 29.403687%, 68.35022%)" offset="0.0585938"/><stop stop-opacity="1" stop-color="rgb(4.368591%, 29.431152%, 68.385315%)" offset="0.0625"/><stop stop-opacity="1" stop-color="rgb(4.634094%, 29.457092%, 68.42041%)" offset="0.0664062"/><stop stop-opacity="1" stop-color="rgb(4.898071%, 29.483032%, 68.457031%)" offset="0.0703125"/><stop stop-opacity="1" stop-color="rgb(5.163574%, 29.508972%, 68.492126%)" offset="0.0742188"/><stop stop-opacity="1" stop-color="rgb(5.427551%, 29.534912%, 68.527222%)" offset="0.078125"/><stop stop-opacity="1" stop-color="rgb(5.693054%, 29.560852%, 68.562317%)" offset="0.0820312"/><stop stop-opacity="1" stop-color="rgb(5.958557%, 29.586792%, 68.598938%)" offset="0.0859375"/><stop stop-opacity="1" stop-color="rgb(6.222534%, 29.614258%, 68.634033%)" offset="0.0898438"/><stop stop-opacity="1" stop-color="rgb(6.488037%, 29.640198%, 68.669128%)" offset="0.09375"/><stop stop-opacity="1" stop-color="rgb(6.752014%, 29.666138%, 68.70575%)" offset="0.0976562"/><stop stop-opacity="1" stop-color="rgb(7.017517%, 29.692078%, 68.740845%)" offset="0.101562"/><stop stop-opacity="1" stop-color="rgb(7.281494%, 29.718018%, 68.77594%)" offset="0.105469"/><stop stop-opacity="1" stop-color="rgb(7.546997%, 29.743958%, 68.811035%)" offset="0.109375"/><stop stop-opacity="1" stop-color="rgb(7.8125%, 29.771423%, 68.847656%)" offset="0.113281"/><stop stop-opacity="1" stop-color="rgb(8.076477%, 29.797363%, 68.882751%)" offset="0.117188"/><stop stop-opacity="1" stop-color="rgb(8.34198%, 29.823303%, 68.917847%)" offset="0.121094"/><stop stop-opacity="1" stop-color="rgb(8.605957%, 29.849243%, 68.954468%)" offset="0.125"/><stop stop-opacity="1" stop-color="rgb(8.87146%, 29.875183%, 68.989563%)" offset="0.128906"/><stop stop-opacity="1" stop-color="rgb(9.135437%, 29.901123%, 69.024658%)" offset="0.132812"/><stop stop-opacity="1" stop-color="rgb(9.40094%, 29.927063%, 69.061279%)" offset="0.136719"/><stop stop-opacity="1" stop-color="rgb(9.666443%, 29.954529%, 69.096375%)" offset="0.140625"/><stop stop-opacity="1" stop-color="rgb(9.93042%, 29.980469%, 69.13147%)" offset="0.144531"/><stop stop-opacity="1" stop-color="rgb(10.195923%, 30.006409%, 69.166565%)" offset="0.148438"/><stop stop-opacity="1" stop-color="rgb(10.4599%, 30.032349%, 69.203186%)" offset="0.152344"/><stop stop-opacity="1" stop-color="rgb(10.725403%, 30.058289%, 69.238281%)" offset="0.15625"/><stop stop-opacity="1" stop-color="rgb(10.98938%, 30.084229%, 69.273376%)" offset="0.160156"/><stop stop-opacity="1" stop-color="rgb(11.254883%, 30.110168%, 69.309998%)" offset="0.164062"/><stop stop-opacity="1" stop-color="rgb(11.51886%, 30.137634%, 69.345093%)" offset="0.167969"/><stop stop-opacity="1" stop-color="rgb(11.784363%, 30.163574%, 69.380188%)" offset="0.171875"/><stop stop-opacity="1" stop-color="rgb(12.049866%, 30.189514%, 69.416809%)" offset="0.175781"/><stop stop-opacity="1" stop-color="rgb(12.313843%, 30.215454%, 69.451904%)" offset="0.179688"/><stop stop-opacity="1" stop-color="rgb(12.579346%, 30.241394%, 69.487%)" offset="0.183594"/><stop stop-opacity="1" stop-color="rgb(12.843323%, 30.267334%, 69.522095%)" offset="0.1875"/><stop stop-opacity="1" stop-color="rgb(13.108826%, 30.2948%, 69.558716%)" offset="0.191406"/><stop stop-opacity="1" stop-color="rgb(13.372803%, 30.32074%, 69.593811%)" offset="0.195312"/><stop stop-opacity="1" stop-color="rgb(13.638306%, 30.34668%, 69.628906%)" offset="0.199219"/><stop stop-opacity="1" stop-color="rgb(13.903809%, 30.37262%, 69.665527%)" offset="0.203125"/><stop stop-opacity="1" stop-color="rgb(14.167786%, 30.39856%, 69.700623%)" offset="0.207031"/><stop stop-opacity="1" stop-color="rgb(14.433289%, 30.4245%, 69.735718%)" offset="0.210938"/><stop stop-opacity="1" stop-color="rgb(14.697266%, 30.450439%, 69.770813%)" offset="0.214844"/><stop stop-opacity="1" stop-color="rgb(14.962769%, 30.477905%, 69.807434%)" offset="0.21875"/><stop stop-opacity="1" stop-color="rgb(15.226746%, 30.503845%, 69.842529%)" offset="0.222656"/><stop stop-opacity="1" stop-color="rgb(15.492249%, 30.529785%, 69.877625%)" offset="0.226562"/><stop stop-opacity="1" stop-color="rgb(15.757751%, 30.555725%, 69.914246%)" offset="0.230469"/><stop stop-opacity="1" stop-color="rgb(16.021729%, 30.581665%, 69.949341%)" offset="0.234375"/><stop stop-opacity="1" stop-color="rgb(16.287231%, 30.607605%, 69.984436%)" offset="0.238281"/><stop stop-opacity="1" stop-color="rgb(16.551208%, 30.635071%, 70.021057%)" offset="0.242188"/><stop stop-opacity="1" stop-color="rgb(16.816711%, 30.661011%, 70.056152%)" offset="0.246094"/><stop stop-opacity="1" stop-color="rgb(17.080688%, 30.686951%, 70.091248%)" offset="0.25"/><stop stop-opacity="1" stop-color="rgb(17.346191%, 30.712891%, 70.126343%)" offset="0.253906"/><stop stop-opacity="1" stop-color="rgb(17.611694%, 30.738831%, 70.162964%)" offset="0.257812"/><stop stop-opacity="1" stop-color="rgb(17.875671%, 30.764771%, 70.198059%)" offset="0.261719"/><stop stop-opacity="1" stop-color="rgb(18.141174%, 30.79071%, 70.233154%)" offset="0.265625"/><stop stop-opacity="1" stop-color="rgb(18.405151%, 30.818176%, 70.269775%)" offset="0.269531"/><stop stop-opacity="1" stop-color="rgb(18.670654%, 30.844116%, 70.304871%)" offset="0.273438"/><stop stop-opacity="1" stop-color="rgb(18.934631%, 30.870056%, 70.339966%)" offset="0.277344"/><stop stop-opacity="1" stop-color="rgb(19.200134%, 30.895996%, 70.376587%)" offset="0.28125"/><stop stop-opacity="1" stop-color="rgb(19.465637%, 30.921936%, 70.411682%)" offset="0.285156"/><stop stop-opacity="1" stop-color="rgb(19.729614%, 30.947876%, 70.446777%)" offset="0.289062"/><stop stop-opacity="1" stop-color="rgb(19.995117%, 30.973816%, 70.481873%)" offset="0.292969"/><stop stop-opacity="1" stop-color="rgb(20.259094%, 31.001282%, 70.518494%)" offset="0.296875"/><stop stop-opacity="1" stop-color="rgb(20.524597%, 31.027222%, 70.553589%)" offset="0.300781"/><stop stop-opacity="1" stop-color="rgb(20.788574%, 31.053162%, 70.588684%)" offset="0.304688"/><stop stop-opacity="1" stop-color="rgb(21.054077%, 31.079102%, 70.625305%)" offset="0.308594"/><stop stop-opacity="1" stop-color="rgb(21.31958%, 31.105042%, 70.6604%)" offset="0.3125"/><stop stop-opacity="1" stop-color="rgb(21.583557%, 31.130981%, 70.695496%)" offset="0.316406"/><stop stop-opacity="1" stop-color="rgb(21.84906%, 31.158447%, 70.730591%)" offset="0.320312"/><stop stop-opacity="1" stop-color="rgb(22.113037%, 31.184387%, 70.767212%)" offset="0.324219"/><stop stop-opacity="1" stop-color="rgb(22.37854%, 31.210327%, 70.802307%)" offset="0.328125"/><stop stop-opacity="1" stop-color="rgb(22.642517%, 31.236267%, 70.837402%)" offset="0.332031"/><stop stop-opacity="1" stop-color="rgb(22.90802%, 31.262207%, 70.874023%)" offset="0.335938"/><stop stop-opacity="1" stop-color="rgb(23.171997%, 31.288147%, 70.909119%)" offset="0.339844"/><stop stop-opacity="1" stop-color="rgb(23.4375%, 31.314087%, 70.944214%)" offset="0.34375"/><stop stop-opacity="1" stop-color="rgb(23.703003%, 31.341553%, 70.980835%)" offset="0.347656"/><stop stop-opacity="1" stop-color="rgb(23.96698%, 31.367493%, 71.01593%)" offset="0.351562"/><stop stop-opacity="1" stop-color="rgb(24.232483%, 31.393433%, 71.051025%)" offset="0.355469"/><stop stop-opacity="1" stop-color="rgb(24.49646%, 31.419373%, 71.086121%)" offset="0.359375"/><stop stop-opacity="1" stop-color="rgb(24.761963%, 31.445312%, 71.122742%)" offset="0.363281"/><stop stop-opacity="1" stop-color="rgb(25.02594%, 31.471252%, 71.157837%)" offset="0.367188"/><stop stop-opacity="1" stop-color="rgb(25.291443%, 31.498718%, 71.192932%)" offset="0.371094"/><stop stop-opacity="1" stop-color="rgb(25.556946%, 31.524658%, 71.229553%)" offset="0.375"/><stop stop-opacity="1" stop-color="rgb(25.820923%, 31.550598%, 71.264648%)" offset="0.378906"/><stop stop-opacity="1" stop-color="rgb(26.086426%, 31.576538%, 71.299744%)" offset="0.382812"/><stop stop-opacity="1" stop-color="rgb(26.350403%, 31.602478%, 71.336365%)" offset="0.386719"/><stop stop-opacity="1" stop-color="rgb(26.615906%, 31.628418%, 71.37146%)" offset="0.390625"/><stop stop-opacity="1" stop-color="rgb(26.879883%, 31.654358%, 71.406555%)" offset="0.394531"/><stop stop-opacity="1" stop-color="rgb(27.145386%, 31.681824%, 71.44165%)" offset="0.398438"/><stop stop-opacity="1" stop-color="rgb(27.410889%, 31.707764%, 71.478271%)" offset="0.402344"/><stop stop-opacity="1" stop-color="rgb(27.674866%, 31.733704%, 71.513367%)" offset="0.40625"/><stop stop-opacity="1" stop-color="rgb(27.940369%, 31.759644%, 71.548462%)" offset="0.410156"/><stop stop-opacity="1" stop-color="rgb(28.204346%, 31.785583%, 71.585083%)" offset="0.414062"/><stop stop-opacity="1" stop-color="rgb(28.469849%, 31.811523%, 71.620178%)" offset="0.417969"/><stop stop-opacity="1" stop-color="rgb(28.733826%, 31.838989%, 71.655273%)" offset="0.421875"/><stop stop-opacity="1" stop-color="rgb(28.999329%, 31.864929%, 71.690369%)" offset="0.425781"/><stop stop-opacity="1" stop-color="rgb(29.264832%, 31.890869%, 71.72699%)" offset="0.429688"/><stop stop-opacity="1" stop-color="rgb(29.528809%, 31.916809%, 71.762085%)" offset="0.433594"/><stop stop-opacity="1" stop-color="rgb(29.794312%, 31.942749%, 71.79718%)" offset="0.4375"/><stop stop-opacity="1" stop-color="rgb(30.058289%, 31.968689%, 71.833801%)" offset="0.441406"/><stop stop-opacity="1" stop-color="rgb(30.323792%, 31.994629%, 71.868896%)" offset="0.445312"/><stop stop-opacity="1" stop-color="rgb(30.587769%, 32.022095%, 71.903992%)" offset="0.449219"/><stop stop-opacity="1" stop-color="rgb(30.853271%, 32.048035%, 71.940613%)" offset="0.453125"/><stop stop-opacity="1" stop-color="rgb(31.118774%, 32.073975%, 71.975708%)" offset="0.457031"/><stop stop-opacity="1" stop-color="rgb(31.382751%, 32.099915%, 72.010803%)" offset="0.460938"/><stop stop-opacity="1" stop-color="rgb(31.648254%, 32.125854%, 72.045898%)" offset="0.464844"/><stop stop-opacity="1" stop-color="rgb(31.912231%, 32.151794%, 72.08252%)" offset="0.46875"/><stop stop-opacity="1" stop-color="rgb(32.177734%, 32.177734%, 72.117615%)" offset="0.472656"/><stop stop-opacity="1" stop-color="rgb(32.441711%, 32.2052%, 72.15271%)" offset="0.476562"/><stop stop-opacity="1" stop-color="rgb(32.707214%, 32.23114%, 72.189331%)" offset="0.480469"/><stop stop-opacity="1" stop-color="rgb(32.972717%, 32.25708%, 72.224426%)" offset="0.484375"/><stop stop-opacity="1" stop-color="rgb(33.236694%, 32.28302%, 72.259521%)" offset="0.488281"/><stop stop-opacity="1" stop-color="rgb(33.502197%, 32.30896%, 72.296143%)" offset="0.492188"/><stop stop-opacity="1" stop-color="rgb(33.766174%, 32.3349%, 72.331238%)" offset="0.496094"/><stop stop-opacity="1" stop-color="rgb(34.031677%, 32.362366%, 72.366333%)" offset="0.5"/><stop stop-opacity="1" stop-color="rgb(34.295654%, 32.388306%, 72.401428%)" offset="0.503906"/><stop stop-opacity="1" stop-color="rgb(34.561157%, 32.414246%, 72.438049%)" offset="0.507812"/><stop stop-opacity="1" stop-color="rgb(34.825134%, 32.440186%, 72.473145%)" offset="0.511719"/><stop stop-opacity="1" stop-color="rgb(35.090637%, 32.466125%, 72.50824%)" offset="0.515625"/><stop stop-opacity="1" stop-color="rgb(35.35614%, 32.492065%, 72.544861%)" offset="0.519531"/><stop stop-opacity="1" stop-color="rgb(35.620117%, 32.518005%, 72.579956%)" offset="0.523438"/><stop stop-opacity="1" stop-color="rgb(35.88562%, 32.545471%, 72.615051%)" offset="0.527344"/><stop stop-opacity="1" stop-color="rgb(36.149597%, 32.571411%, 72.650146%)" offset="0.53125"/><stop stop-opacity="1" stop-color="rgb(36.4151%, 32.597351%, 72.686768%)" offset="0.535156"/><stop stop-opacity="1" stop-color="rgb(36.679077%, 32.623291%, 72.721863%)" offset="0.539062"/><stop stop-opacity="1" stop-color="rgb(36.94458%, 32.649231%, 72.756958%)" offset="0.542969"/><stop stop-opacity="1" stop-color="rgb(37.210083%, 32.675171%, 72.793579%)" offset="0.546875"/><stop stop-opacity="1" stop-color="rgb(37.47406%, 32.702637%, 72.828674%)" offset="0.550781"/><stop stop-opacity="1" stop-color="rgb(37.739563%, 32.728577%, 72.86377%)" offset="0.554688"/><stop stop-opacity="1" stop-color="rgb(38.00354%, 32.754517%, 72.900391%)" offset="0.558594"/><stop stop-opacity="1" stop-color="rgb(38.269043%, 32.780457%, 72.935486%)" offset="0.5625"/><stop stop-opacity="1" stop-color="rgb(38.53302%, 32.806396%, 72.970581%)" offset="0.566406"/><stop stop-opacity="1" stop-color="rgb(38.798523%, 32.832336%, 73.005676%)" offset="0.570312"/><stop stop-opacity="1" stop-color="rgb(39.064026%, 32.858276%, 73.042297%)" offset="0.574219"/><stop stop-opacity="1" stop-color="rgb(39.328003%, 32.885742%, 73.077393%)" offset="0.578125"/><stop stop-opacity="1" stop-color="rgb(39.593506%, 32.911682%, 73.112488%)" offset="0.582031"/><stop stop-opacity="1" stop-color="rgb(39.857483%, 32.937622%, 73.149109%)" offset="0.585938"/><stop stop-opacity="1" stop-color="rgb(40.122986%, 32.963562%, 73.184204%)" offset="0.589844"/><stop stop-opacity="1" stop-color="rgb(40.386963%, 32.989502%, 73.219299%)" offset="0.59375"/><stop stop-opacity="1" stop-color="rgb(40.652466%, 33.015442%, 73.254395%)" offset="0.597656"/><stop stop-opacity="1" stop-color="rgb(40.917969%, 33.042908%, 73.291016%)" offset="0.601562"/><stop stop-opacity="1" stop-color="rgb(41.181946%, 33.068848%, 73.326111%)" offset="0.605469"/><stop stop-opacity="1" stop-color="rgb(41.447449%, 33.094788%, 73.361206%)" offset="0.609375"/><stop stop-opacity="1" stop-color="rgb(41.711426%, 33.120728%, 73.397827%)" offset="0.613281"/><stop stop-opacity="1" stop-color="rgb(41.976929%, 33.146667%, 73.432922%)" offset="0.617188"/><stop stop-opacity="1" stop-color="rgb(42.240906%, 33.172607%, 73.468018%)" offset="0.621094"/><stop stop-opacity="1" stop-color="rgb(42.506409%, 33.198547%, 73.504639%)" offset="0.625"/><stop stop-opacity="1" stop-color="rgb(42.771912%, 33.226013%, 73.539734%)" offset="0.628906"/><stop stop-opacity="1" stop-color="rgb(43.035889%, 33.251953%, 73.574829%)" offset="0.632812"/><stop stop-opacity="1" stop-color="rgb(43.301392%, 33.277893%, 73.609924%)" offset="0.636719"/><stop stop-opacity="1" stop-color="rgb(43.565369%, 33.303833%, 73.646545%)" offset="0.640625"/><stop stop-opacity="1" stop-color="rgb(43.830872%, 33.329773%, 73.681641%)" offset="0.644531"/><stop stop-opacity="1" stop-color="rgb(44.094849%, 33.355713%, 73.716736%)" offset="0.648438"/><stop stop-opacity="1" stop-color="rgb(44.360352%, 33.381653%, 73.753357%)" offset="0.652344"/><stop stop-opacity="1" stop-color="rgb(44.624329%, 33.409119%, 73.788452%)" offset="0.65625"/><stop stop-opacity="1" stop-color="rgb(44.889832%, 33.435059%, 73.823547%)" offset="0.660156"/><stop stop-opacity="1" stop-color="rgb(45.155334%, 33.460999%, 73.860168%)" offset="0.664062"/><stop stop-opacity="1" stop-color="rgb(45.419312%, 33.486938%, 73.895264%)" offset="0.667969"/><stop stop-opacity="1" stop-color="rgb(45.684814%, 33.512878%, 73.930359%)" offset="0.671875"/><stop stop-opacity="1" stop-color="rgb(45.948792%, 33.538818%, 73.965454%)" offset="0.675781"/><stop stop-opacity="1" stop-color="rgb(46.214294%, 33.566284%, 74.002075%)" offset="0.679688"/><stop stop-opacity="1" stop-color="rgb(46.478271%, 33.592224%, 74.03717%)" offset="0.683594"/><stop stop-opacity="1" stop-color="rgb(46.743774%, 33.618164%, 74.072266%)" offset="0.6875"/><stop stop-opacity="1" stop-color="rgb(47.009277%, 33.644104%, 74.108887%)" offset="0.691406"/><stop stop-opacity="1" stop-color="rgb(47.273254%, 33.670044%, 74.143982%)" offset="0.695312"/><stop stop-opacity="1" stop-color="rgb(47.538757%, 33.695984%, 74.179077%)" offset="0.699219"/><stop stop-opacity="1" stop-color="rgb(47.802734%, 33.721924%, 74.214172%)" offset="0.703125"/><stop stop-opacity="1" stop-color="rgb(48.068237%, 33.74939%, 74.250793%)" offset="0.707031"/><stop stop-opacity="1" stop-color="rgb(48.332214%, 33.77533%, 74.285889%)" offset="0.710938"/><stop stop-opacity="1" stop-color="rgb(48.597717%, 33.80127%, 74.320984%)" offset="0.714844"/><stop stop-opacity="1" stop-color="rgb(48.86322%, 33.827209%, 74.357605%)" offset="0.71875"/><stop stop-opacity="1" stop-color="rgb(49.127197%, 33.853149%, 74.3927%)" offset="0.722656"/><stop stop-opacity="1" stop-color="rgb(49.3927%, 33.879089%, 74.427795%)" offset="0.726562"/><stop stop-opacity="1" stop-color="rgb(49.656677%, 33.906555%, 74.464417%)" offset="0.730469"/><stop stop-opacity="1" stop-color="rgb(49.92218%, 33.932495%, 74.499512%)" offset="0.734375"/><stop stop-opacity="1" stop-color="rgb(50.186157%, 33.958435%, 74.534607%)" offset="0.738281"/><stop stop-opacity="1" stop-color="rgb(50.45166%, 33.984375%, 74.569702%)" offset="0.742188"/><stop stop-opacity="1" stop-color="rgb(50.717163%, 34.010315%, 74.606323%)" offset="0.746094"/><stop stop-opacity="1" stop-color="rgb(50.98114%, 34.036255%, 74.641418%)" offset="0.75"/><stop stop-opacity="1" stop-color="rgb(51.246643%, 34.062195%, 74.676514%)" offset="0.753906"/><stop stop-opacity="1" stop-color="rgb(51.51062%, 34.089661%, 74.713135%)" offset="0.757812"/><stop stop-opacity="1" stop-color="rgb(51.776123%, 34.115601%, 74.74823%)" offset="0.761719"/><stop stop-opacity="1" stop-color="rgb(52.0401%, 34.141541%, 74.783325%)" offset="0.765625"/><stop stop-opacity="1" stop-color="rgb(52.305603%, 34.16748%, 74.819946%)" offset="0.769531"/><stop stop-opacity="1" stop-color="rgb(52.571106%, 34.19342%, 74.855042%)" offset="0.773438"/><stop stop-opacity="1" stop-color="rgb(52.835083%, 34.21936%, 74.890137%)" offset="0.777344"/><stop stop-opacity="1" stop-color="rgb(53.100586%, 34.2453%, 74.925232%)" offset="0.78125"/><stop stop-opacity="1" stop-color="rgb(53.364563%, 34.272766%, 74.961853%)" offset="0.785156"/><stop stop-opacity="1" stop-color="rgb(53.630066%, 34.298706%, 74.996948%)" offset="0.789062"/><stop stop-opacity="1" stop-color="rgb(53.894043%, 34.324646%, 75.032043%)" offset="0.792969"/><stop stop-opacity="1" stop-color="rgb(54.159546%, 34.350586%, 75.068665%)" offset="0.796875"/><stop stop-opacity="1" stop-color="rgb(54.425049%, 34.376526%, 75.10376%)" offset="0.800781"/><stop stop-opacity="1" stop-color="rgb(54.689026%, 34.402466%, 75.138855%)" offset="0.804688"/><stop stop-opacity="1" stop-color="rgb(54.954529%, 34.429932%, 75.17395%)" offset="0.808594"/><stop stop-opacity="1" stop-color="rgb(55.218506%, 34.455872%, 75.210571%)" offset="0.8125"/><stop stop-opacity="1" stop-color="rgb(55.484009%, 34.481812%, 75.245667%)" offset="0.816406"/><stop stop-opacity="1" stop-color="rgb(55.747986%, 34.507751%, 75.280762%)" offset="0.820312"/><stop stop-opacity="1" stop-color="rgb(56.013489%, 34.533691%, 75.317383%)" offset="0.824219"/><stop stop-opacity="1" stop-color="rgb(56.277466%, 34.559631%, 75.352478%)" offset="0.828125"/><stop stop-opacity="1" stop-color="rgb(56.542969%, 34.585571%, 75.387573%)" offset="0.832031"/><stop stop-opacity="1" stop-color="rgb(56.808472%, 34.613037%, 75.424194%)" offset="0.835938"/><stop stop-opacity="1" stop-color="rgb(57.072449%, 34.638977%, 75.45929%)" offset="0.839844"/><stop stop-opacity="1" stop-color="rgb(57.337952%, 34.664917%, 75.494385%)" offset="0.84375"/><stop stop-opacity="1" stop-color="rgb(57.601929%, 34.690857%, 75.52948%)" offset="0.847656"/><stop stop-opacity="1" stop-color="rgb(57.867432%, 34.716797%, 75.566101%)" offset="0.851562"/><stop stop-opacity="1" stop-color="rgb(58.131409%, 34.742737%, 75.601196%)" offset="0.855469"/><stop stop-opacity="1" stop-color="rgb(58.396912%, 34.770203%, 75.636292%)" offset="0.859375"/><stop stop-opacity="1" stop-color="rgb(58.662415%, 34.796143%, 75.672913%)" offset="0.863281"/><stop stop-opacity="1" stop-color="rgb(58.926392%, 34.822083%, 75.708008%)" offset="0.867188"/><stop stop-opacity="1" stop-color="rgb(59.191895%, 34.848022%, 75.743103%)" offset="0.871094"/><stop stop-opacity="1" stop-color="rgb(59.455872%, 34.873962%, 75.779724%)" offset="0.875"/><stop stop-opacity="1" stop-color="rgb(59.721375%, 34.899902%, 75.814819%)" offset="0.878906"/><stop stop-opacity="1" stop-color="rgb(59.985352%, 34.925842%, 75.849915%)" offset="0.882812"/><stop stop-opacity="1" stop-color="rgb(60.250854%, 34.953308%, 75.88501%)" offset="0.886719"/><stop stop-opacity="1" stop-color="rgb(60.516357%, 34.979248%, 75.921631%)" offset="0.890625"/><stop stop-opacity="1" stop-color="rgb(60.780334%, 35.005188%, 75.956726%)" offset="0.894531"/><stop stop-opacity="1" stop-color="rgb(61.045837%, 35.031128%, 75.991821%)" offset="0.898438"/><stop stop-opacity="1" stop-color="rgb(61.309814%, 35.057068%, 76.028442%)" offset="0.902344"/><stop stop-opacity="1" stop-color="rgb(61.575317%, 35.083008%, 76.063538%)" offset="0.90625"/><stop stop-opacity="1" stop-color="rgb(61.839294%, 35.110474%, 76.098633%)" offset="0.910156"/><stop stop-opacity="1" stop-color="rgb(62.104797%, 35.136414%, 76.133728%)" offset="0.914062"/><stop stop-opacity="1" stop-color="rgb(62.3703%, 35.162354%, 76.170349%)" offset="0.917969"/><stop stop-opacity="1" stop-color="rgb(62.634277%, 35.188293%, 76.205444%)" offset="0.921875"/><stop stop-opacity="1" stop-color="rgb(62.89978%, 35.214233%, 76.24054%)" offset="0.925781"/><stop stop-opacity="1" stop-color="rgb(63.163757%, 35.240173%, 76.277161%)" offset="0.929688"/><stop stop-opacity="1" stop-color="rgb(63.42926%, 35.266113%, 76.312256%)" offset="0.933594"/><stop stop-opacity="1" stop-color="rgb(63.693237%, 35.293579%, 76.347351%)" offset="0.9375"/><stop stop-opacity="1" stop-color="rgb(63.95874%, 35.319519%, 76.383972%)" offset="0.941406"/><stop stop-opacity="1" stop-color="rgb(64.224243%, 35.345459%, 76.419067%)" offset="0.945312"/><stop stop-opacity="1" stop-color="rgb(64.48822%, 35.371399%, 76.454163%)" offset="0.949219"/><stop stop-opacity="1" stop-color="rgb(64.753723%, 35.397339%, 76.489258%)" offset="0.953125"/><stop stop-opacity="1" stop-color="rgb(65.0177%, 35.423279%, 76.525879%)" offset="0.957031"/><stop stop-opacity="1" stop-color="rgb(65.283203%, 35.449219%, 76.560974%)" offset="0.960938"/><stop stop-opacity="1" stop-color="rgb(65.54718%, 35.476685%, 76.596069%)" offset="0.964844"/><stop stop-opacity="1" stop-color="rgb(65.812683%, 35.502625%, 76.63269%)" offset="0.96875"/><stop stop-opacity="1" stop-color="rgb(66.078186%, 35.528564%, 76.667786%)" offset="0.972656"/><stop stop-opacity="1" stop-color="rgb(66.342163%, 35.554504%, 76.702881%)" offset="0.976562"/><stop stop-opacity="1" stop-color="rgb(66.607666%, 35.580444%, 76.739502%)" offset="0.980469"/><stop stop-opacity="1" stop-color="rgb(66.871643%, 35.606384%, 76.774597%)" offset="0.984375"/><stop stop-opacity="1" stop-color="rgb(67.137146%, 35.63385%, 76.809692%)" offset="0.988281"/><stop stop-opacity="1" stop-color="rgb(67.401123%, 35.65979%, 76.844788%)" offset="0.992188"/><stop stop-opacity="1" stop-color="rgb(67.666626%, 35.68573%, 76.881409%)" offset="0.996094"/><stop stop-opacity="1" stop-color="rgb(67.799377%, 35.699463%, 76.899719%)" offset="1"/></radialGradient><clipPath id="eea85ea436"><path d="M 33.535156 27.546875 L 73.855469 27.546875 L 73.855469 81.308594 L 33.535156 81.308594 Z M 33.535156 27.546875 " clip-rule="nonzero"/></clipPath></defs><g clip-path="url(#a639898f92)"><g clip-path="url(#5befce1e21)"><path fill="url(#b782ec003d)" d="M 9.839844 10.441406 L 9.839844 98.519531 L 97.292969 98.519531 L 97.292969 10.441406 Z M 9.839844 10.441406 " fill-rule="nonzero"/></g></g><g fill="#121212" fill-opacity="1"><g transform="translate(108.382519, 95.745806)"><g><path d="M 8.5 -79.375 C 8.5 -80.882812 8.988281 -82.015625 9.96875 -82.765625 C 10.957031 -83.523438 12.09375 -83.90625 13.375 -83.90625 C 14.664062 -83.90625 15.78125 -83.523438 16.71875 -82.765625 C 17.664062 -82.015625 18.140625 -80.882812 18.140625 -79.375 L 18.140625 -13.375 C 18.140625 -11.414062 18.515625 -10.019531 19.265625 -9.1875 C 20.023438 -8.351562 20.859375 -7.9375 21.765625 -7.9375 C 22.753906 -7.9375 23.457031 -8.050781 23.875 -8.28125 C 24.289062 -8.507812 24.910156 -8.625 25.734375 -8.625 C 26.796875 -8.625 27.550781 -8.28125 28 -7.59375 C 28.457031 -6.914062 28.6875 -6.125 28.6875 -5.21875 C 28.6875 -3.40625 28.039062 -1.890625 26.75 -0.671875 C 25.46875 0.535156 23.203125 1.140625 19.953125 1.140625 C 16.703125 1.140625 13.976562 0.15625 11.78125 -1.8125 C 9.59375 -3.78125 8.5 -6.992188 8.5 -11.453125 Z M 8.5 -79.375 "/></g></g></g><g fill="#121212" fill-opacity="1"><g transform="translate(138.765715, 95.745806)"><g><path d="M 51.359375 -12.25 C 52.421875 -12.25 53.289062 -11.867188 53.96875 -11.109375 C 54.65625 -10.359375 55 -9.378906 55 -8.171875 C 55 -6.804688 54.351562 -5.554688 53.0625 -4.421875 C 51.78125 -3.285156 50.132812 -2.300781 48.125 -1.46875 C 46.125 -0.644531 43.953125 -0.00390625 41.609375 0.453125 C 39.265625 0.910156 37.035156 1.140625 34.921875 1.140625 C 30.691406 1.140625 26.835938 0.476562 23.359375 -0.84375 C 19.878906 -2.164062 16.890625 -4.09375 14.390625 -6.625 C 11.898438 -9.164062 9.957031 -12.269531 8.5625 -15.9375 C 7.164062 -19.601562 6.46875 -23.738281 6.46875 -28.34375 C 6.46875 -32.800781 7.015625 -36.828125 8.109375 -40.421875 C 9.203125 -44.015625 10.828125 -47.113281 12.984375 -49.71875 C 15.140625 -52.332031 17.84375 -54.335938 21.09375 -55.734375 C 24.34375 -57.128906 28.125 -57.828125 32.4375 -57.828125 C 36.664062 -57.828125 40.289062 -57.144531 43.3125 -55.78125 C 46.332031 -54.425781 48.828125 -52.578125 50.796875 -50.234375 C 52.765625 -47.890625 54.21875 -45.164062 55.15625 -42.0625 C 56.101562 -38.96875 56.578125 -35.71875 56.578125 -32.3125 C 56.578125 -29.894531 55.878906 -27.988281 54.484375 -26.59375 C 53.085938 -25.195312 50.875 -24.5 47.84375 -24.5 L 16.328125 -24.5 C 16.929688 -18.820312 18.835938 -14.546875 22.046875 -11.671875 C 25.265625 -8.804688 29.59375 -7.375 35.03125 -7.375 C 37.226562 -7.375 39.15625 -7.5625 40.8125 -7.9375 C 42.476562 -8.3125 43.957031 -8.800781 45.25 -9.40625 C 46.53125 -10.007812 47.546875 -10.632812 48.296875 -11.28125 C 49.054688 -11.925781 50.078125 -12.25 51.359375 -12.25 Z M 32.4375 -49.328125 C 27.59375 -49.328125 23.847656 -47.851562 21.203125 -44.90625 C 18.554688 -41.957031 16.929688 -37.988281 16.328125 -33 L 46.828125 -33 C 46.597656 -37.988281 45.332031 -41.957031 43.03125 -44.90625 C 40.726562 -47.851562 37.195312 -49.328125 32.4375 -49.328125 Z M 32.4375 -49.328125 "/></g></g></g><g fill="#121212" fill-opacity="1"><g transform="translate(201.912892, 95.745806)"><g><path d="M 22 -29.140625 L 5.671875 -51.8125 C 5.210938 -52.425781 4.90625 -52.976562 4.75 -53.46875 C 4.601562 -53.957031 4.53125 -54.46875 4.53125 -55 C 4.53125 -55.90625 4.90625 -56.601562 5.65625 -57.09375 C 6.414062 -57.582031 7.40625 -57.828125 8.625 -57.828125 C 11.644531 -57.828125 14.289062 -56.203125 16.5625 -52.953125 L 27.78125 -37.1875 L 39.125 -52.953125 C 41.382812 -56.203125 44.03125 -57.828125 47.0625 -57.828125 C 48.269531 -57.828125 49.25 -57.582031 50 -57.09375 C 50.757812 -56.601562 51.140625 -55.90625 51.140625 -55 C 51.140625 -54.46875 51.0625 -53.957031 50.90625 -53.46875 C 50.757812 -52.976562 50.457031 -52.425781 50 -51.8125 L 33.671875 -29.140625 L 51.140625 -4.875 C 51.890625 -3.8125 52.265625 -2.753906 52.265625 -1.703125 C 52.265625 -0.796875 51.882812 -0.0976562 51.125 0.390625 C 50.375 0.890625 49.394531 1.140625 48.1875 1.140625 C 45.164062 1.140625 42.519531 -0.484375 40.25 -3.734375 L 27.78125 -20.984375 L 15.421875 -3.734375 C 13.148438 -0.484375 10.503906 1.140625 7.484375 1.140625 C 6.273438 1.140625 5.289062 0.890625 4.53125 0.390625 C 3.78125 -0.0976562 3.40625 -0.796875 3.40625 -1.703125 C 3.40625 -2.753906 3.78125 -3.8125 4.53125 -4.875 Z M 22 -29.140625 "/></g></g></g><g fill="#121212" fill-opacity="1"><g transform="translate(257.577643, 95.745806)"><g><path d="M 4.421875 -4.984375 C 4.421875 -6.722656 5.003906 -8.195312 6.171875 -9.40625 C 7.347656 -10.613281 8.804688 -11.21875 10.546875 -11.21875 C 12.285156 -11.21875 13.757812 -10.613281 14.96875 -9.40625 C 16.175781 -8.195312 16.78125 -6.722656 16.78125 -4.984375 C 16.78125 -3.242188 16.175781 -1.785156 14.96875 -0.609375 C 13.757812 0.554688 12.285156 1.140625 10.546875 1.140625 C 8.804688 1.140625 7.347656 0.554688 6.171875 -0.609375 C 5.003906 -1.785156 4.421875 -3.242188 4.421875 -4.984375 Z M 4.421875 -4.984375 "/></g></g></g><g fill="#121212" fill-opacity="1"><g transform="translate(278.777855, 95.745806)"><g><path d="M 8.84375 -74.046875 C 8.84375 -75.785156 9.46875 -77.296875 10.71875 -78.578125 C 11.96875 -79.859375 13.457031 -80.5 15.1875 -80.5 C 16.925781 -80.5 18.4375 -79.859375 19.71875 -78.578125 C 21.007812 -77.296875 21.65625 -75.785156 21.65625 -74.046875 C 21.65625 -72.304688 21.007812 -70.8125 19.71875 -69.5625 C 18.4375 -68.3125 16.925781 -67.6875 15.1875 -67.6875 C 13.457031 -67.6875 11.96875 -68.3125 10.71875 -69.5625 C 9.46875 -70.8125 8.84375 -72.304688 8.84375 -74.046875 Z M 10.4375 -48.296875 L 6.6875 -48.296875 C 3.738281 -48.296875 2.265625 -49.660156 2.265625 -52.390625 C 2.265625 -53.671875 2.625 -54.707031 3.34375 -55.5 C 4.0625 -56.300781 5.175781 -56.703125 6.6875 -56.703125 L 12.59375 -56.703125 C 15.382812 -56.703125 17.328125 -56.207031 18.421875 -55.21875 C 19.515625 -54.238281 20.0625 -52.390625 20.0625 -49.671875 L 20.0625 -3.40625 C 20.0625 -1.894531 19.585938 -0.757812 18.640625 0 C 17.703125 0.757812 16.59375 1.140625 15.3125 1.140625 C 14.019531 1.140625 12.882812 0.757812 11.90625 0 C 10.925781 -0.757812 10.4375 -1.894531 10.4375 -3.40625 Z M 10.4375 -48.296875 "/></g></g></g><g fill="#121212" fill-opacity="1"><g transform="translate(307.34714, 95.745806)"><g><path d="M 32.4375 1.140625 C 28.125 1.140625 24.34375 0.441406 21.09375 -0.953125 C 17.84375 -2.359375 15.140625 -4.363281 12.984375 -6.96875 C 10.828125 -9.582031 9.203125 -12.703125 8.109375 -16.328125 C 7.015625 -19.953125 6.46875 -23.957031 6.46875 -28.34375 C 6.46875 -32.800781 7.015625 -36.828125 8.109375 -40.421875 C 9.203125 -44.015625 10.828125 -47.113281 12.984375 -49.71875 C 15.140625 -52.332031 17.84375 -54.335938 21.09375 -55.734375 C 24.34375 -57.128906 28.125 -57.828125 32.4375 -57.828125 C 36.738281 -57.828125 40.515625 -57.128906 43.765625 -55.734375 C 47.015625 -54.335938 49.71875 -52.332031 51.875 -49.71875 C 54.03125 -47.113281 55.65625 -44.015625 56.75 -40.421875 C 57.84375 -36.828125 58.390625 -32.800781 58.390625 -28.34375 C 58.390625 -23.957031 57.84375 -19.953125 56.75 -16.328125 C 55.65625 -12.703125 54.03125 -9.582031 51.875 -6.96875 C 49.71875 -4.363281 47.015625 -2.359375 43.765625 -0.953125 C 40.515625 0.441406 36.738281 1.140625 32.4375 1.140625 Z M 32.4375 -49.328125 C 26.914062 -49.328125 22.8125 -47.4375 20.125 -43.65625 C 17.4375 -39.875 16.09375 -34.769531 16.09375 -28.34375 C 16.09375 -21.914062 17.4375 -16.8125 20.125 -13.03125 C 22.8125 -9.257812 26.914062 -7.375 32.4375 -7.375 C 37.945312 -7.375 42.046875 -9.257812 44.734375 -13.03125 C 47.421875 -16.8125 48.765625 -21.914062 48.765625 -28.34375 C 48.765625 -34.769531 47.421875 -39.875 44.734375 -43.65625 C 42.046875 -47.4375 37.945312 -49.328125 32.4375 -49.328125 Z M 32.4375 -49.328125 "/></g></g></g><g clip-path="url(#eea85ea436)"><path fill="#ffffff" d="M 73.589844 65.652344 L 73.589844 81.398438 L 59.066406 81.398438 C 56.078125 81.398438 53.101562 80.074219 50.882812 77.773438 C 48.296875 75.09375 47.828125 68.335938 47.828125 68.335938 C 47.828125 68.335938 47.699219 74.554688 44.648438 77.507812 C 41.929688 80.140625 38.851562 81.390625 34.714844 81.390625 L 33.535156 81.390625 L 33.535156 42.132812 C 33.535156 34.101562 40.074219 27.5625 48.105469 27.5625 L 49.277344 27.5625 L 49.277344 65.652344 Z M 73.589844 65.652344 " fill-opacity="1" fill-rule="nonzero"/></g></svg>