<svg xmlns="http://www.w3.org/2000/svg" xmlns:xlink="http://www.w3.org/1999/xlink" width="500"
  zoomAndPan="magnify" viewBox="0 0 375 374.999991" height="500" preserveAspectRatio="xMidYMid meet"
  version="1.0">
  <defs>
    <clipPath id="0340c4d986">
      <path d="M 12 11 L 362.609375 11 L 362.609375 364 L 12 364 Z M 12 11 " clip-rule="nonzero" />
    </clipPath>
    <clipPath id="70ea5cf95b">
      <path
        d="M 22.140625 11.125 L 352.859375 11.125 C 358.242188 11.125 362.609375 15.492188 362.609375 20.875 L 362.609375 354.125 C 362.609375 359.507812 358.242188 363.875 352.859375 363.875 L 22.140625 363.875 C 16.757812 363.875 12.390625 359.507812 12.390625 354.125 L 12.390625 20.875 C 12.390625 15.492188 16.757812 11.125 22.140625 11.125 Z M 22.140625 11.125 "
        clip-rule="nonzero" />
    </clipPath>
    <clipPath id="3838a5d1d7">
      <path
        d="M 107.289062 79.636719 L 267.789062 79.636719 L 267.789062 295.636719 L 107.289062 295.636719 Z M 107.289062 79.636719 "
        clip-rule="nonzero" />
    </clipPath>
  </defs>
  <rect x="-37.5" width="450" fill="#ffffff" y="-37.499999" height="449.999989" fill-opacity="1" />
  <rect x="-37.5" width="450" fill="#000000" y="-37.499999" height="449.999989" fill-opacity="1" />
  <g clip-path="url(#0340c4d986)">
    <g clip-path="url(#70ea5cf95b)">
      <path fill="#ffffff"
        d="M 12.390625 11.125 L 362.609375 11.125 L 362.609375 364.078125 L 12.390625 364.078125 Z M 12.390625 11.125 "
        fill-opacity="1" fill-rule="nonzero" />
    </g>
  </g>
  <g clip-path="url(#3838a5d1d7)">
    <path fill="#000000"
      d="M 267.707031 232.246094 L 267.707031 295.300781 L 209.535156 295.300781 C 197.574219 295.300781 185.644531 290.003906 176.769531 280.792969 C 166.40625 270.054688 164.523438 242.996094 164.523438 242.996094 C 164.523438 242.996094 164.011719 267.890625 151.792969 279.730469 C 140.914062 290.273438 128.582031 295.285156 112.003906 295.285156 L 107.289062 295.285156 L 107.289062 138.050781 C 107.289062 105.871094 133.46875 79.6875 165.648438 79.6875 L 170.339844 79.6875 L 170.339844 232.246094 Z M 267.707031 232.246094 "
      fill-opacity="1" fill-rule="nonzero" />
  </g>
</svg>
