<svg xmlns="http://www.w3.org/2000/svg" xmlns:xlink="http://www.w3.org/1999/xlink" width="500" zoomAndPan="magnify" viewBox="0 0 375 374.999991" height="500" preserveAspectRatio="xMidYMid meet" version="1.0"><defs><clipPath id="d3bd445c9c"><path d="M 12.394531 11.125 L 362.640625 11.125 L 362.640625 363.625 L 12.394531 363.625 Z M 12.394531 11.125 " clip-rule="nonzero"/></clipPath><clipPath id="af001eebba"><path d="M 22.144531 11.125 L 352.855469 11.125 C 358.242188 11.125 362.605469 15.492188 362.605469 20.875 L 362.605469 354.121094 C 362.605469 359.507812 358.242188 363.871094 352.855469 363.871094 L 22.144531 363.871094 C 16.757812 363.871094 12.394531 359.507812 12.394531 354.121094 L 12.394531 20.875 C 12.394531 15.492188 16.757812 11.125 22.144531 11.125 Z M 22.144531 11.125 " clip-rule="nonzero"/></clipPath><clipPath id="5eef891d5a"><path d="M 107.289062 79.636719 L 267.789062 79.636719 L 267.789062 295.636719 L 107.289062 295.636719 Z M 107.289062 79.636719 " clip-rule="nonzero"/></clipPath></defs><g clip-path="url(#d3bd445c9c)"><g clip-path="url(#af001eebba)"><path stroke-linecap="butt" transform="matrix(0.75, 0, 0, 0.75, 12.393052, 11.125627)" fill="none" stroke-linejoin="miter" d="M 13.001973 -0.000835613 L 453.949918 -0.000835613 C 461.13221 -0.000835613 466.949919 5.822081 466.949919 12.999165 L 466.949919 457.327319 C 466.949919 464.509612 461.13221 470.32732 453.949918 470.32732 L 13.001973 470.32732 C 5.819681 470.32732 0.00197179 464.509612 0.00197179 457.327319 L 0.00197179 12.999165 C 0.00197179 5.822081 5.819681 -0.000835613 13.001973 -0.000835613 Z M 13.001973 -0.000835613 " stroke="#fff" stroke-width="24" stroke-opacity="1" stroke-miterlimit="4"/></g></g><g clip-path="url(#5eef891d5a)"><path fill="#fff" d="M 267.707031 232.246094 L 267.707031 295.300781 L 209.535156 295.300781 C 197.574219 295.300781 185.644531 290.003906 176.769531 280.792969 C 166.40625 270.054688 164.523438 242.996094 164.523438 242.996094 C 164.523438 242.996094 164.011719 267.890625 151.792969 279.730469 C 140.914062 290.273438 128.582031 295.285156 112.003906 295.285156 L 107.289062 295.285156 L 107.289062 138.050781 C 107.289062 105.871094 133.46875 79.6875 165.648438 79.6875 L 170.339844 79.6875 L 170.339844 232.246094 Z M 267.707031 232.246094 " fill-opacity="1" fill-rule="nonzero"/></g></svg>
